<svg width="19" height="19" viewBox="0 0 19 19" fill="none" xmlns="http://www.w3.org/2000/svg">
<path d="M19 9.48205C19.0097 14.7163 14.7411 18.9963 9.50689 19C7.24623 19.0016 5.16972 18.2136 3.5379 16.8965C3.11358 16.5541 3.08187 15.9182 3.46746 15.5326L3.89906 15.101C4.22884 14.7712 4.75532 14.7351 5.12069 15.025C6.32293 15.979 7.84443 16.5484 9.49999 16.5484C13.3959 16.5484 16.5484 13.3954 16.5484 9.50002C16.5484 5.60405 13.3953 2.45162 9.49999 2.45162C7.6301 2.45162 5.93179 3.17825 4.67078 4.36434L6.61498 6.30855C7.00111 6.69468 6.72764 7.35485 6.18162 7.35485H0.612903C0.274389 7.35485 0 7.08046 0 6.74195V1.17321C0 0.627193 0.660173 0.353722 1.0463 0.739814L2.93757 2.63108C4.64308 1.00118 6.95461 0 9.49999 0C14.7407 0 18.9903 4.2436 19 9.48205ZM12.0699 12.5L12.4462 12.0162C12.7579 11.6154 12.6857 11.0378 12.2849 10.7261L10.7258 9.51339V5.51614C10.7258 5.00839 10.3142 4.59678 9.80644 4.59678H9.19354C8.68579 4.59678 8.27419 5.00839 8.27419 5.51614V10.7125L10.7798 12.6613C11.1806 12.973 11.7582 12.9008 12.0699 12.5Z" fill="#989898"/>
</svg>
