<svg width="24" height="20" viewBox="0 0 24 20" fill="none" xmlns="http://www.w3.org/2000/svg">
<path d="M24 8.21436V8.92864C24 9.52038 23.5523 10.0001 23 10.0001H22.6667L21.5786 18.1602C21.4379 19.2159 20.594 20 19.5987 20H4.40125C3.40596 20 2.56212 19.2159 2.42133 18.1602L1.33333 10.0001H1C0.447708 10.0001 0 9.52038 0 8.92864V8.21436C0 7.62262 0.447708 7.14294 1 7.14294H3.80588L8.25504 0.588471C8.68817 -0.0495607 9.522 -0.190676 10.1176 0.273384C10.7131 0.737443 10.8448 1.63087 10.4117 2.26895L7.10321 7.14294H16.8968L13.5883 2.26891C13.1552 1.63087 13.2869 0.737399 13.8825 0.273339C14.4779 -0.190721 15.3119 -0.0496499 15.745 0.588426L20.1941 7.14294H23C23.5523 7.14294 24 7.62262 24 8.21436ZM13 16.0715V11.0715C13 10.4797 12.5523 10.0001 12 10.0001C11.4477 10.0001 11 10.4797 11 11.0715V16.0715C11 16.6632 11.4477 17.1429 12 17.1429C12.5523 17.1429 13 16.6632 13 16.0715ZM17.6667 16.0715V11.0715C17.6667 10.4797 17.219 10.0001 16.6667 10.0001C16.1144 10.0001 15.6667 10.4797 15.6667 11.0715V16.0715C15.6667 16.6632 16.1144 17.1429 16.6667 17.1429C17.219 17.1429 17.6667 16.6632 17.6667 16.0715ZM8.33333 16.0715V11.0715C8.33333 10.4797 7.88562 10.0001 7.33333 10.0001C6.78104 10.0001 6.33333 10.4797 6.33333 11.0715V16.0715C6.33333 16.6632 6.78104 17.1429 7.33333 17.1429C7.88562 17.1429 8.33333 16.6632 8.33333 16.0715Z" fill="white"/>
</svg>
