<svg width="53" height="47" viewBox="0 0 53 47" fill="none" xmlns="http://www.w3.org/2000/svg">
<path d="M32.4624 44.5521H20.5374C9.62822 44.5521 4.99072 40.42 4.99072 30.7654V21.9725C4.99072 21.1696 5.74156 20.5037 6.64697 20.5037C7.55239 20.5037 8.30322 21.1696 8.30322 21.9725V30.7654C8.30322 38.775 11.5053 41.6146 20.5374 41.6146H32.4403C41.4724 41.6146 44.6745 38.775 44.6745 30.7654V21.9725C44.6745 21.1696 45.4253 20.5037 46.3307 20.5037C47.2361 20.5037 47.987 21.1696 47.987 21.9725V30.7654C48.0091 40.42 43.3495 44.5521 32.4624 44.5521Z" fill="#549A9A"/>
<path d="M26.5 24.9688C24.0709 24.9688 21.8625 24.1267 20.2946 22.5796C18.7267 21.0325 17.998 19.0154 18.2409 16.8612L19.7205 3.77958C19.8088 3.03542 20.5155 2.44792 21.3767 2.44792H31.6896C32.5509 2.44792 33.2575 3.01583 33.3459 3.77958L34.8255 16.8612C35.0684 19.0154 34.3396 21.0325 32.7717 22.5796C31.1375 24.1267 28.9292 24.9688 26.5 24.9688ZM22.8563 5.38542L21.5313 17.155C21.3767 18.4671 21.8184 19.7008 22.7459 20.6017C24.623 22.4425 28.3771 22.4425 30.2542 20.6017C31.1817 19.6813 31.6234 18.4475 31.4688 17.155L30.1438 5.38542H22.8563Z" fill="#549A9A"/>
<path d="M40.4345 24.9688C35.9516 24.9688 31.9545 21.7571 31.4908 17.8012L29.9449 4.07333C29.9008 3.66208 30.0553 3.25083 30.3645 2.9375C30.6737 2.62417 31.1153 2.44792 31.6012 2.44792H38.3366C44.8291 2.44792 47.8545 4.85667 48.7599 10.7708L49.3783 16.215C49.6433 18.5258 48.8483 20.7192 47.1478 22.3838C45.4474 24.0483 43.0624 24.9688 40.4345 24.9688ZM33.4341 5.38542L34.8033 17.5075C35.0903 19.9554 37.652 22.0312 40.4345 22.0312C42.1128 22.0312 43.6145 21.4633 44.6966 20.4254C45.7566 19.3875 46.2424 17.9971 46.0878 16.5087L45.4695 11.1233C44.7849 6.6975 43.1728 5.38542 38.3366 5.38542H33.4341Z" fill="#549A9A"/>
<path d="M12.4549 24.9688C9.82701 24.9688 7.44201 24.0483 5.74159 22.3838C4.04118 20.7192 3.24618 18.5258 3.51118 16.215L4.10743 10.8296C5.03493 4.85667 8.06034 2.44792 14.5528 2.44792H21.2883C21.752 2.44792 22.1937 2.62417 22.5249 2.9375C22.8562 3.25083 22.9887 3.66208 22.9445 4.07333L21.3987 17.8012C20.9349 21.7571 16.9378 24.9688 12.4549 24.9688ZM14.5528 5.38542C9.71659 5.38542 8.10451 6.67792 7.39784 11.1625L6.80159 16.5087C6.62493 17.9971 7.13284 19.3875 8.19284 20.4254C9.25284 21.4633 10.7545 22.0312 12.4549 22.0312C15.2374 22.0312 17.8212 19.9554 18.0862 17.5075L19.4553 5.38542H14.5528Z" fill="#549A9A"/>
<path d="M32.0209 44.5521H20.9792C20.0738 44.5521 19.323 43.8862 19.323 43.0833V38.1875C19.323 34.075 21.8626 31.8229 26.5001 31.8229C31.1376 31.8229 33.6772 34.075 33.6772 38.1875V43.0833C33.6772 43.8862 32.9263 44.5521 32.0209 44.5521ZM22.6355 41.6146H30.3647V38.1875C30.3647 35.72 29.2826 34.7604 26.5001 34.7604C23.7176 34.7604 22.6355 35.72 22.6355 38.1875V41.6146Z" fill="#549A9A"/>
</svg>
