<svg width="28" height="26" viewBox="0 0 28 26" fill="none" xmlns="http://www.w3.org/2000/svg">
<path d="M17.15 24.6458H10.85C5.08666 24.6458 2.63666 22.36 2.63666 17.0192V12.155C2.63666 11.7108 3.03332 11.3425 3.51166 11.3425C3.98999 11.3425 4.38666 11.7108 4.38666 12.155V17.0192C4.38666 21.45 6.07832 23.0208 10.85 23.0208H17.1383C21.91 23.0208 23.6017 21.45 23.6017 17.0192V12.155C23.6017 11.7108 23.9983 11.3425 24.4767 11.3425C24.955 11.3425 25.3517 11.7108 25.3517 12.155V17.0192C25.3633 22.36 22.9017 24.6458 17.15 24.6458Z" fill="#DA8539"/>
<path d="M14 13.8125C12.7167 13.8125 11.55 13.3467 10.7217 12.4908C9.89335 11.635 9.50836 10.5192 9.63669 9.32749L10.4184 2.09082C10.465 1.67916 10.8384 1.35416 11.2934 1.35416H16.7417C17.1967 1.35416 17.57 1.66832 17.6167 2.09082L18.3984 9.32749C18.5267 10.5192 18.1417 11.635 17.3134 12.4908C16.45 13.3467 15.2834 13.8125 14 13.8125ZM12.075 2.97916L11.375 9.48999C11.2934 10.2158 11.5267 10.8983 12.0167 11.3967C13.0084 12.415 14.9917 12.415 15.9834 11.3967C16.4734 10.8875 16.7067 10.205 16.625 9.48999L15.925 2.97916H12.075Z" fill="#DA8539"/>
<path d="M21.3617 13.8125C18.9934 13.8125 16.8817 12.0358 16.6367 9.84749L15.82 2.25332C15.7967 2.02582 15.8784 1.79832 16.0417 1.62499C16.205 1.45166 16.4384 1.35416 16.695 1.35416H20.2534C23.6834 1.35416 25.2817 2.68666 25.76 5.95832L26.0867 8.96999C26.2267 10.2483 25.8067 11.4617 24.9084 12.3825C24.01 13.3033 22.75 13.8125 21.3617 13.8125ZM17.6634 2.97916L18.3867 9.68499C18.5384 11.0392 19.8917 12.1875 21.3617 12.1875C22.2484 12.1875 23.0417 11.8733 23.6134 11.2992C24.1734 10.725 24.43 9.95582 24.3484 9.13249L24.0217 6.15332C23.66 3.70499 22.8084 2.97916 20.2534 2.97916H17.6634Z" fill="#DA8539"/>
<path d="M6.58002 13.8125C5.19169 13.8125 3.93169 13.3033 3.03336 12.3825C2.13502 11.4617 1.71503 10.2483 1.85503 8.96999L2.17002 5.99082C2.66002 2.68666 4.25836 1.35416 7.68836 1.35416H11.2467C11.4917 1.35416 11.725 1.45166 11.9 1.62499C12.075 1.79832 12.145 2.02582 12.1217 2.25332L11.305 9.84749C11.06 12.0358 8.94836 13.8125 6.58002 13.8125ZM7.68836 2.97916C5.13336 2.97916 4.28169 3.69416 3.90836 6.17499L3.59336 9.13249C3.50002 9.95582 3.76836 10.725 4.32836 11.2992C4.88836 11.8733 5.68169 12.1875 6.58002 12.1875C8.05002 12.1875 9.41502 11.0392 9.55502 9.68499L10.2784 2.97916H7.68836Z" fill="#DA8539"/>
<path d="M16.9166 24.6458H11.0833C10.605 24.6458 10.2083 24.2775 10.2083 23.8333V21.125C10.2083 18.85 11.55 17.6042 14 17.6042C16.45 17.6042 17.7916 18.85 17.7916 21.125V23.8333C17.7916 24.2775 17.395 24.6458 16.9166 24.6458ZM11.9583 23.0208H16.0416V21.125C16.0416 19.76 15.47 19.2292 14 19.2292C12.53 19.2292 11.9583 19.76 11.9583 21.125V23.0208Z" fill="#DA8539"/>
</svg>
