<svg width="32" height="30" viewBox="0 0 32 30" fill="none" xmlns="http://www.w3.org/2000/svg">
<path d="M32 12.3215V13.393C32 14.2806 31.4031 15.0001 30.6667 15.0001H30.2222L28.7715 27.2403C28.5838 28.8238 27.4587 30 26.1317 30H5.86833C4.54128 30 3.41617 28.8238 3.22844 27.2403L1.77778 15.0001H1.33333C0.596944 15.0001 0 14.2806 0 13.393V12.3215C0 11.4339 0.596944 10.7144 1.33333 10.7144H5.0745L11.0067 0.882706C11.5842 -0.074341 12.696 -0.286014 13.4901 0.410075C14.2842 1.10616 14.4597 2.44631 13.8822 3.40343L9.47094 10.7144H22.5291L18.1178 3.40336C17.5403 2.44631 17.7159 1.1061 18.5099 0.410009C19.3039 -0.286081 20.4158 -0.0744749 20.9933 0.88264L26.9255 10.7144H30.6667C31.4031 10.7144 32 11.4339 32 12.3215ZM17.3333 24.1072V16.6072C17.3333 15.7196 16.7364 15.0001 16 15.0001C15.2636 15.0001 14.6667 15.7196 14.6667 16.6072V24.1072C14.6667 24.9948 15.2636 25.7143 16 25.7143C16.7364 25.7143 17.3333 24.9948 17.3333 24.1072ZM23.5556 24.1072V16.6072C23.5556 15.7196 22.9586 15.0001 22.2222 15.0001C21.4858 15.0001 20.8889 15.7196 20.8889 16.6072V24.1072C20.8889 24.9948 21.4858 25.7143 22.2222 25.7143C22.9586 25.7143 23.5556 24.9948 23.5556 24.1072ZM11.1111 24.1072V16.6072C11.1111 15.7196 10.5142 15.0001 9.77778 15.0001C9.04139 15.0001 8.44444 15.7196 8.44444 16.6072V24.1072C8.44444 24.9948 9.04139 25.7143 9.77778 25.7143C10.5142 25.7143 11.1111 24.9948 11.1111 24.1072Z" fill="white"/>
</svg>
