<svg width="17" height="17" viewBox="0 0 17 17" fill="none" xmlns="http://www.w3.org/2000/svg">
<path d="M7.07906 0C3.17779 0 0 3.17779 0 7.07906C0 10.9803 3.17779 14.1581 7.07906 14.1581C8.77556 14.1581 10.3336 13.5557 11.5546 12.5557L15.7813 16.7823C15.8466 16.8503 15.9247 16.9045 16.0111 16.9419C16.0976 16.9793 16.1906 16.999 16.2848 17C16.379 17.0009 16.4724 16.9831 16.5596 16.9475C16.6468 16.9119 16.726 16.8592 16.7926 16.7926C16.8592 16.726 16.9119 16.6468 16.9475 16.5596C16.9831 16.4724 17.0009 16.379 17 16.2848C16.999 16.1906 16.9793 16.0976 16.9419 16.0111C16.9045 15.9247 16.8503 15.8466 16.7823 15.7813L12.5557 11.5546C13.5557 10.3336 14.1581 8.77556 14.1581 7.07906C14.1581 3.17779 10.9803 0 7.07906 0ZM7.07906 1.41581C10.2152 1.41581 12.7423 3.94295 12.7423 7.07906C12.7423 10.2152 10.2152 12.7423 7.07906 12.7423C3.94295 12.7423 1.41581 10.2152 1.41581 7.07906C1.41581 3.94295 3.94295 1.41581 7.07906 1.41581Z" fill="#E9E9E9"/>
</svg>
