<svg width="25" height="26" viewBox="0 0 25 26" fill="none" xmlns="http://www.w3.org/2000/svg">
<path d="M18.25 9.84307L6.75 3.63925M1.345 6.92644L12.5 12.9629L23.655 6.92644M12.5 25V12.951M24 17.7323V8.1696C23.9995 7.75036 23.8812 7.33861 23.657 6.97564C23.4327 6.61268 23.1103 6.31127 22.7222 6.10166L13.7778 1.32029C13.3893 1.11046 12.9486 1 12.5 1C12.0514 1 11.6107 1.11046 11.2222 1.32029L2.27778 6.10166C1.88967 6.31127 1.56731 6.61268 1.34303 6.97564C1.11876 7.33861 1.00046 7.75036 1 8.1696V17.7323C1.00046 18.1516 1.11876 18.5633 1.34303 18.9263C1.56731 19.2892 1.88967 19.5906 2.27778 19.8003L11.2222 24.5816C11.6107 24.7915 12.0514 24.9019 12.5 24.9019C12.9486 24.9019 13.3893 24.7915 13.7778 24.5816L22.7222 19.8003C23.1103 19.5906 23.4327 19.2892 23.657 18.9263C23.8812 18.5633 23.9995 18.1516 24 17.7323Z" stroke="#868DB5" stroke-width="2" stroke-linecap="round" stroke-linejoin="round"/>
</svg>
