<svg width="26" height="22" viewBox="0 0 26 22" fill="none" xmlns="http://www.w3.org/2000/svg">
<path d="M17.3636 15.4444V1H1V15.4444H17.3636ZM17.3636 15.4444H25V9.88889L21.7273 6.55556H17.3636V15.4444ZM8.63636 18.2222C8.63636 19.7563 7.41532 21 5.90909 21C4.40286 21 3.18182 19.7563 3.18182 18.2222C3.18182 16.6881 4.40286 15.4444 5.90909 15.4444C7.41532 15.4444 8.63636 16.6881 8.63636 18.2222ZM22.8182 18.2222C22.8182 19.7563 21.5971 21 20.0909 21C18.5847 21 17.3636 19.7563 17.3636 18.2222C17.3636 16.6881 18.5847 15.4444 20.0909 15.4444C21.5971 15.4444 22.8182 16.6881 22.8182 18.2222Z" stroke="#5E7ED2" stroke-width="2" stroke-linecap="round" stroke-linejoin="round"/>
</svg>
